<svg xmlns="http://www.w3.org/2000/svg" width="24" height="24" fill="none" viewBox="0 0 24 24" class="featureSvg_GfXr" role="img"><path fill="#222" fill-rule="evenodd" d="M15.106 6.25h.043a5.836 5.836 0 0 1 5.586 6.042v.1l.138-.001a3.006 3.006 0 0 1 2.877 3.088 3.17 3.17 0 0 1-2.835 3.267 1 1 0 0 1-.079.004H3.434A3.325 3.325 0 0 1 .25 15.327 3.325 3.325 0 0 1 3.469 11.9q.225 0 .446.035A4.517 4.517 0 0 1 8.278 7.53a4.23 4.23 0 0 1 2.528.864 5.55 5.55 0 0 1 4.3-2.145M23 15.482l-.75-.03a1.506 1.506 0 0 0-1.425-1.562 1.26 1.26 0 0 0-.588.154.75.75 0 0 1-1.096-.803 5 5 0 0 0 .095-.992 4.336 4.336 0 0 0-4.13-4.499 4.05 4.05 0 0 0-3.5 2.162.75.75 0 0 1-1.246.124 2.73 2.73 0 0 0-2.075-1.005 3.017 3.017 0 0 0-2.869 3.16q0 .356.073.706a.75.75 0 0 1-1.155.773 1.57 1.57 0 0 0-.855-.27 1.825 1.825 0 0 0-1.73 1.897v.06a1.825 1.825 0 0 0 1.733 1.893h17.31a1.67 1.67 0 0 0 1.459-1.734z" clip-rule="evenodd"></path></svg>