<svg xmlns="http://www.w3.org/2000/svg" width="24" height="24" fill="none" viewBox="0 0 24 24" class="featureSvg_GfXr" role="img"><path fill="#222" stroke="#222" stroke-width="0.5" d="M12.25 2.093a1.6 1.6 0 0 0-.683.157L4.654 5.587c-.43.208-.742.6-.848 1.066l-1.708 7.504c-.106.465.005.953.302 1.327L7.185 21.5c.298.375.751.593 1.23.593h7.67c.479 0 .932-.218 1.23-.593l4.785-6.015v-.001c.297-.373.409-.861.303-1.326l-1.709-7.505a1.57 1.57 0 0 0-.848-1.066L12.934 2.25l-.001-.001a1.6 1.6 0 0 0-.683-.156Zm0 .894q.151 0 .294.068l6.913 3.337c.186.09.32.258.366.46l1.708 7.503a.68.68 0 0 1-.13.572l-4.786 6.017a.68.68 0 0 1-.53.255h-7.67a.67.67 0 0 1-.53-.255L3.1 14.927a.68.68 0 0 1-.13-.572l1.708-7.503a.68.68 0 0 1 .365-.459l6.913-3.338a.7.7 0 0 1 .294-.068Zm-.004 1.881a.487.487 0 0 0-.444.678c.104.242.14.483.166.724q.015.186.01.367c.013.12-.05.241-.14.362-.093.12-.102.242-.115.363a5.35 5.35 0 0 0-3.176 1.466l-.008-.005c-.103-.067-.201-.134-.357-.138-.148-.01-.282-.036-.367-.125a3 3 0 0 1-.273-.237 2.3 2.3 0 0 1-.46-.586.5.5 0 0 0-.296-.242.49.49 0 0 0-.603.335.483.483 0 0 0 .335.6c.25.076.46.2.666.335q.147.1.287.22c.103.066.156.191.196.334.03.144.112.227.192.307a5.33 5.33 0 0 0-.945 3.633c-.1.036-.2.074-.284.174-.099.112-.206.2-.327.21a2.4 2.4 0 0 1-.357.067c-.241.031-.487.05-.742-.004a.5.5 0 0 0-.376.084.485.485 0 1 0 .563.793c.215-.153.443-.238.676-.314a3 3 0 0 1 .353-.09c.116-.04.246-.004.384.054.116.06.218.055.318.045a5.39 5.39 0 0 0 2.378 3.02.6.6 0 0 0-.04.36c.027.148.031.287-.031.39q-.075.165-.161.325a2.6 2.6 0 0 1-.456.59.484.484 0 0 0 .308.846.49.49 0 0 0 .506-.47c.004-.264.076-.496.156-.728q.062-.17.143-.331c.04-.117.148-.202.277-.274a.6.6 0 0 0 .246-.26c.564.203 1.169.319 1.802.319.644 0 1.259-.12 1.831-.33.06.104.123.202.253.271.13.076.236.157.276.274q.08.167.14.335c.08.233.147.465.155.728 0 .13.054.256.157.35a.49.49 0 0 0 .689-.032.49.49 0 0 0-.032-.689 2.3 2.3 0 0 1-.451-.594 4 4 0 0 1-.16-.322c-.063-.107-.06-.242-.028-.39.036-.151-.004-.263-.04-.38l-.003-.01a5.38 5.38 0 0 0 2.349-3.03l.014.001c.126.01.246.022.38-.054.134-.063.27-.099.385-.063q.177.028.353.076c.233.067.466.148.685.295a.5.5 0 0 0 .375.068.484.484 0 0 0 .371-.577.487.487 0 0 0-.581-.371c-.26.058-.5.049-.747.026a3 3 0 0 1-.358-.057c-.12-.01-.227-.09-.33-.197-.103-.12-.219-.152-.335-.188l-.008-.002q.024-.248.025-.503c0-1.109-.338-2.14-.917-2.996.085-.09.17-.174.202-.326.04-.143.094-.268.197-.335.089-.08.188-.152.286-.224.201-.134.412-.264.662-.335a.47.47 0 0 0 .294-.247.48.48 0 0 0-.21-.652.48.48 0 0 0-.653.21c-.12.232-.286.416-.456.586q-.132.128-.272.242c-.085.089-.22.115-.367.124-.156.005-.255.077-.358.144a5.35 5.35 0 0 0-3.246-1.53c-.013-.12-.022-.241-.116-.362-.09-.12-.152-.242-.139-.362q-.005-.18.01-.367c.027-.241.062-.482.165-.724a.5.5 0 0 0 0-.384.49.49 0 0 0-.45-.294Zm-.64 3.412-.022.172c-.063.483-.107.97-.152 1.453-.027.255-.05.515-.068.77-.219-.157-.438-.323-.67-.47-.403-.273-.805-.546-1.22-.805l-.142-.088a4.44 4.44 0 0 1 2.273-1.032Zm1.288 0c.899.13 1.707.523 2.349 1.101l-.15.095c-.411.263-.809.536-1.21.81q-.243.161-.47.33a.186.186 0 0 1-.296-.139q-.02-.286-.049-.572c-.044-.483-.09-.97-.152-1.453zM8.486 10.29l.143.148c.34.353.684.693 1.033 1.038q.22.219.447.425a.183.183 0 0 1-.072.313c-.219.067-.438.129-.657.2-.46.152-.926.296-1.386.461l-.203.071c-.004-.082-.012-.162-.012-.245 0-.89.262-1.716.707-2.411Zm7.581.088a4.45 4.45 0 0 1 .654 2.323c0 .074-.008.147-.011.22l-.16-.05c-.464-.152-.929-.282-1.398-.416a23 23 0 0 0-.913-.246c.228-.219.466-.434.685-.658.344-.344.688-.688 1.023-1.046zm-4.094 1.428h.545c.085 0 .166.041.21.104l.349.438c.05.058.068.142.054.218l-.126.542a.28.28 0 0 1-.143.192l-.5.232a.24.24 0 0 1-.232 0l-.502-.232c-.071-.04-.134-.107-.143-.192l-.125-.542a.27.27 0 0 1 .054-.218l.349-.438a.26.26 0 0 1 .21-.104Zm-1.615 2.133a.181.181 0 0 1 .198.246c-.085.224-.166.443-.242.667-.165.46-.327.916-.479 1.381l-.06.192A4.47 4.47 0 0 1 8.041 14.2l.237-.02c.488-.045.966-.104 1.453-.162.21-.022.416-.053.627-.08Zm3.864.063q.313.034.626.063c.487.044.97.089 1.457.12l.156.009a4.47 4.47 0 0 1-1.697 2.206l-.05-.163c-.148-.465-.309-.925-.465-1.381a25 25 0 0 0-.22-.608.182.182 0 0 1 .193-.246Zm-1.939.882c.064 0 .128.032.164.097q.147.28.309.554c.241.42.482.846.741 1.257l.106.171a4.5 4.5 0 0 1-2.667.012l.111-.179c.26-.411.506-.832.752-1.252q.167-.275.322-.563a.18.18 0 0 1 .162-.097Z"></path></svg>