<svg xmlns="http://www.w3.org/2000/svg" width="20" height="20" fill="none" viewBox="0 0 20 20" class="featureSvg_GfXr" role="img"><path fill="#222" fill-rule="evenodd" d="M.764 7a.75.75 0 0 1 .75-.75h17.025a.75.75 0 1 1 0 1.5H1.514A.75.75 0 0 1 .764 7" clip-rule="evenodd"></path><path fill="#222" fill-rule="evenodd" d="M7.858 3.941C7.185 5.453 6.75 7.595 6.75 10s.435 4.547 1.108 6.059c.337.757.72 1.323 1.105 1.69.382.363.733.501 1.043.501a.75.75 0 0 1 0 1.5c-.797 0-1.5-.366-2.076-.914-.573-.544-1.054-1.295-1.442-2.167C5.711 14.924 5.25 12.565 5.25 10s.461-4.924 1.238-6.669c.388-.872.87-1.623 1.442-2.167C8.506.616 9.209.25 10.006.25a.75.75 0 0 1 0 1.5c-.31 0-.66.138-1.043.5-.386.368-.768.934-1.105 1.691" clip-rule="evenodd"></path><path fill="#222" fill-rule="evenodd" d="M.764 13a.75.75 0 0 1 .75-.75H9a.75.75 0 0 1 0 1.5H1.514a.75.75 0 0 1-.75-.75" clip-rule="evenodd"></path><path fill="#222" fill-rule="evenodd" d="M3.106 3.106A9.75 9.75 0 0 1 10 .25a.75.75 0 0 1 0 1.5 8.25 8.25 0 1 0 0 16.5.75.75 0 0 1 0 1.5A9.75 9.75 0 0 1 3.106 3.106" clip-rule="evenodd"></path><path fill="#222" fill-rule="evenodd" d="M9.998.25a9.786 9.786 0 0 1 9.747 8.664.75.75 0 0 1-1.49.172 8.286 8.286 0 0 0-8.253-7.336.75.75 0 0 1-.004-1.5" clip-rule="evenodd"></path><path fill="#222" fill-rule="evenodd" d="M9.25 1A.75.75 0 0 1 10 .25c1.488 0 2.623 1.232 3.365 2.73.77 1.552 1.269 3.659 1.384 5.983a.75.75 0 1 1-1.498.074c-.108-2.175-.573-4.068-1.23-5.391C11.339 2.268 10.585 1.75 10 1.75A.75.75 0 0 1 9.25 1" clip-rule="evenodd"></path><path fill="#222" d="m15.401 13.706.102-.006.1.007a.8.8 0 0 1 .691.695l.006.1a.8.8 0 1 1-.899-.796"></path><path fill="#222" fill-rule="evenodd" d="M15.5 11.75a2.75 2.75 0 0 0-2.75 2.75.75.75 0 0 1-1.5 0 4.25 4.25 0 0 1 8.5 0 .75.75 0 0 1-1.5 0 2.75 2.75 0 0 0-2.75-2.75" clip-rule="evenodd"></path><path fill="#222" fill-rule="evenodd" d="M12 13.75a.75.75 0 0 1 .75.75c0 .574.334 1.266.896 1.986.54.692 1.204 1.304 1.688 1.71a.28.28 0 0 0 .331 0c.485-.406 1.15-1.017 1.69-1.71.56-.72.895-1.412.895-1.986a.75.75 0 0 1 1.5 0c0 1.088-.594 2.114-1.213 2.909-.636.816-1.398 1.51-1.922 1.948l-.02.015a1.78 1.78 0 0 1-2.211-.015c-.524-.438-1.285-1.132-1.921-1.949-.62-.794-1.213-1.82-1.213-2.908a.75.75 0 0 1 .75-.75" clip-rule="evenodd"></path></svg>