<svg xmlns="http://www.w3.org/2000/svg" width="24" height="24" fill="none" viewBox="0 0 24 24" class="featureSvg_GfXr" role="img"><g stroke="#323232" stroke-linecap="round" stroke-linejoin="round" stroke-width="1.5" clip-path="url(#a)"><path d="M7.5 9h-3l-.01-.001a1.51 1.51 0 0 1-1.5-1.5v-3h-.01c0-.83.67-1.5 1.49-1.51h3l-.01-.001c.82 0 1.49.67 1.5 1.49v3-.01c-.01.82-.68 1.49-1.5 1.5zM19.5 9h-6l-.01-.001a1.51 1.51 0 0 1-1.5-1.5v-3h-.01c0-.83.67-1.5 1.49-1.51h6l-.01-.001c.82 0 1.49.67 1.5 1.49v3-.01c-.01.82-.68 1.49-1.5 1.5zM19.5 18h-3l-.01-.001a1.51 1.51 0 0 1-1.5-1.5v-3h-.01c0-.83.67-1.5 1.49-1.51h3l-.01-.001c.82 0 1.49.67 1.5 1.49v3-.01c-.01.82-.68 1.49-1.5 1.5zM10 21H4.99a2 2 0 0 1-2-2c-.01-.01-.01-.01 0-.01v-4.58l-.01-.01c-.01-1.11.89-2 1.99-2h5c1.1-.01 1.99.889 1.99 1.989h-.001v4.57c0 1.1-.9 1.99-2 1.99-.01 0-.01-.01-.01-.01z"></path></g><defs><clipPath id="a"><path fill="#fff" d="M0 0h24v24H0z"></path></clipPath></defs></svg>