<svg class="brand-logo-svg" id="Livello_1" style="enable-background:new 0 0 237.7 121.7;" version="1.1" viewBox="0 0 237.7 121.7" x="0px" xml:space="preserve" xmlns="http://www.w3.org/2000/svg" xmlns:xlink="http://www.w3.org/1999/xlink" y="0px">
<style type="text/css">.st0{fill:#0063AF;}
	.st1{fill:#EA580C;}
	.st2{fill-rule:evenodd;clip-rule:evenodd;fill:#FFFFFF;}
	.st3{fill:#0063AE;}
</style>
<g> <path class="st0" d="M42.4,107.2l6.6,5.9c-5.2,5.3-12.5,8.6-20.7,8.6c-15.6,0-28.3-12.1-28.3-27s12.7-27,28.3-27
		c8.2,0,15.5,3.3,20.7,8.6l-6.6,5.9c-3.5-3.6-8.5-5.8-14.1-5.8C17.6,76.3,9,84.5,9,94.7c0,10.2,8.7,18.4,19.3,18.4
		C33.9,113.1,38.9,110.8,42.4,107.2z"></path> <g> <path class="st1" d="M177.9,56.9c0-0.9-0.1-2.5-0.1-5c0-2.5-0.1-4.2-0.1-5.2c-0.1-1.3-0.2-2.1-0.5-2.7c-0.7-1.5-2.1-2.3-3.7-2.2
			c-1,0.1-1.8,0.6-2.4,1.3l-0.1,0c-0.9-0.2-1.7-0.4-2.3-0.4c-0.9-0.1-1.8,0.1-2.7,0.4c-0.6,0.2-1.1,0.4-1.5,0.6
			c-0.6,0.3-1.2,0.6-1.7,1c-0.7,0.6-1.3,1.4-1.7,2.4c-0.2,0.5-0.4,0.9-0.5,1.4c-0.2-0.4-0.4-0.9-0.6-1.4c-0.4-1.1-1-1.9-1.7-2.4
			c-0.5-0.4-1.1-0.7-1.7-1c-0.4-0.2-0.9-0.4-1.5-0.6c-0.9-0.3-1.8-0.5-2.7-0.4c-0.5,0-1.1,0.1-1.8,0.3c0-0.6,0-1.3,0-2.1
			c0.1-5,0.1-5.7,0.2-5.7c0.2-1.4-0.3-3.3-2.1-4.1c-1.4-0.6-2.8-0.4-3.8,0.5c-0.9,0.8-1.1,1.8-1.2,2.8c-0.1,1-0.1,2.7-0.1,5.5
			c0,1.8,0,3.3-0.1,4.4c-0.6-1.2-1.3-2.1-2.5-2.4c-1.1-0.3-2.2-0.2-3.2,0.4c-0.4,0.2-0.8,0.6-1.1,1c-0.1-0.2-0.1-0.4-0.2-0.6
			c-0.5-0.9-1.3-1.5-2.2-1.7c-1.1-0.3-2.2,0-3.2,0.7l-0.1,0.1c-0.4,0.3-0.7,0.6-0.9,1l0,0.1c-0.5,1-0.9,1.8-1.1,2.5
			c-0.3-0.3-0.6-0.6-0.9-0.8c-0.1,0-0.2-0.1-0.6-0.4c-0.7-0.6-1.6-1-2.4-1.3c-0.7-0.2-1.4-0.3-2.2-0.3c-0.9-0.1-1.8,0-2.7,0.3
			c-0.1,0-0.2,0.1-0.3,0.1c-1.1-0.7-2.5-0.7-3.6,0c-0.4,0.2-0.8,0.5-1.1,0.9c-0.7-1.3-2.1-2.1-3.6-1.9c-1,0.1-1.8,0.6-2.4,1.3
			l-0.1,0c-0.9-0.2-1.7-0.4-2.3-0.4c-0.9-0.1-1.8,0.1-2.7,0.4c-0.6,0.2-1.1,0.4-1.5,0.6c-0.6,0.3-1.2,0.6-1.7,1
			c-0.7,0.6-1.3,1.4-1.7,2.4c-0.2,0.5-0.4,1-0.6,1.5c-0.3,0.7-0.5,1.6-0.6,2.4c-0.1,0.6-0.1,1.3-0.1,1.8c0,0.6,0,1.3,0,1.9
			c0.1,1.1,0.4,2,0.9,2.9l0.7,1.1c0.5,0.7,1.1,1.4,2.1,1.9c0.9,0.6,1.8,1,2.6,1.1c0.4,0.1,0.9,0.1,1.6,0.2c0.9,0.1,1.6,0.2,2.2,0.1
			c0.8-0.1,1.6-0.3,2.4-0.7c0.6,0.5,1.4,0.8,2.2,0.8c0.9,0,2.1-0.4,2.8-1.6c0.4,0.6,0.9,1,1.3,1.2c1.4,0.7,3.2,0.3,4.2-0.9
			c0.7-0.9,0.9-1.9,0.9-4.6c0-1.5-0.1-3.1-0.1-4.7c0-0.8,0-1.4,0-1.8c0.1-0.1,0.1-0.1,0.2-0.2c0,0,0.1-0.1,0.3-0.1
			c0.1,0,0.2,0,0.3,0c0.4,0.4,0.8,0.6,1.1,0.8c0.1,0,0.2,0.1,0.4,0.2c1.2,0.9,2.6,1,3.8,0.4c0,0.4,0,0.8,0,1.1
			c0.1,1.1,0.4,2.2,1.1,3.2c0.6,0.9,1.3,1.6,2,2.1c0.6,0.4,1.2,0.7,1.8,1c0.8,0.4,1.7,0.6,2.6,0.6h1.7c1,0,1.7-0.1,2.3-0.2
			c0.7-0.2,1.4-0.5,2.4-1.1c0.7-0.4,1.3-1,1.8-1.6c0,0.3,0,0.5,0,0.7c0,1.2,0,1.9,0.1,2.5c0.4,2.1,2.1,2.9,3.4,2.9
			c0.8,0,1.6-0.3,2.2-0.8c0.8,0.4,1.6,0.7,2.4,0.7c0.6,0.1,1.4,0,2.2-0.1c0.7-0.1,1.2-0.2,1.6-0.2c0.8-0.1,1.6-0.5,2.6-1.1
			c0.9-0.6,1.6-1.2,2-1.9l0.7-1.1c0.1-0.1,0.1-0.1,0.1-0.2c0.1,0.1,0.1,0.2,0.2,0.3l0.7,1.1c0.5,0.7,1.2,1.4,2.1,1.9
			c0.9,0.6,1.8,1,2.6,1.1c0.4,0.1,0.9,0.1,1.6,0.2c0.9,0.1,1.6,0.2,2.2,0.1c0.8-0.1,1.6-0.3,2.4-0.7c0.6,0.5,1.4,0.8,2.2,0.8
			c1.3,0,2.9-0.8,3.4-2.9C177.9,58.9,177.9,58.1,177.9,56.9z M168.9,54.9c-0.4-0.1-0.8-0.2-1.1-0.4c-0.3-0.1-0.4-0.2-0.4-0.2
			c-0.1-0.1-0.3-0.2-0.4-0.3c0-0.4,0-0.8,0-1.3c0-0.6,0.1-1.2,0.2-1.6c0.1-0.2,0.2-0.4,0.5-0.6c0.1-0.1,0.3-0.1,0.4-0.2h0.9
			c0.2,0,0.4,0,0.5,0c0.1,0.1,0.2,0.2,0.2,0.2c0,0,0.1,0.2,0.4,0.9c0.1,0.4,0.2,0.7,0.3,0.9c0,0.3,0,0.6-0.1,0.9s-0.2,0.6-0.4,0.9
			c-0.2,0.4-0.4,0.6-0.5,0.6C169.2,54.8,169.1,54.9,168.9,54.9z M154,52.8c0,0.5,0,1,0,1.3c-0.1,0.1-0.3,0.2-0.4,0.3
			c0,0-0.1,0.1-0.4,0.2c-0.4,0.1-0.8,0.3-1.2,0.4c-0.1,0-0.3-0.1-0.4-0.2c-0.1-0.1-0.3-0.2-0.5-0.6c-0.2-0.3-0.3-0.6-0.4-0.9
			s-0.1-0.6-0.1-0.9c0-0.2,0.1-0.6,0.3-0.9c0.2-0.5,0.4-0.8,0.4-0.8c0,0,0.1-0.1,0.2-0.2c0.2,0,0.4,0,0.5,0h0.9
			c0.1,0.1,0.3,0.1,0.4,0.2c0.2,0.2,0.4,0.4,0.5,0.6C153.9,51.6,154,52.2,154,52.8z M137.2,49.8c0,0.6,0,1.1-0.1,1.4
			c-0.1,0.3-0.1,0.4-0.1,0.4c0,0-0.1,0.1-0.3,0.3c0,0-0.1,0-0.1,0.1c-0.5,0.1-0.9,0.1-1.4,0c-0.1,0-0.2-0.1-0.3-0.2c0,0,0,0,0,0
			c0-0.1,0-0.3-0.1-0.5c0-0.5,0-0.9,0.1-1.3c0.1-0.6,0.4-1.2,0.6-1.9c0.2-0.5,0.3-0.8,0.4-0.9c0.1-0.1,0.2-0.2,0.2-0.4
			c0,0.1,0.1,0.2,0.1,0.3c0.2,0.5,0.5,1.1,0.8,1.8C137.2,49.2,137.2,49.5,137.2,49.8z M106.7,54.9c-0.4-0.1-0.8-0.2-1.1-0.4
			c-0.3-0.1-0.4-0.2-0.4-0.2c-0.1-0.1-0.3-0.2-0.4-0.3c0-0.4,0-0.8,0-1.3c0-0.6,0.1-1.2,0.2-1.6c0.1-0.2,0.2-0.4,0.5-0.6
			c0.1-0.1,0.3-0.1,0.4-0.2h0.9c0.2,0,0.4,0,0.5,0c0.1,0.1,0.1,0.1,0.2,0.2c0,0.1,0.2,0.3,0.4,0.9c0.2,0.4,0.2,0.7,0.3,0.9l0,0
			c0,0.3,0,0.6-0.1,0.9c-0.1,0.3-0.2,0.6-0.4,0.9c-0.2,0.4-0.4,0.6-0.5,0.6C107,54.8,106.8,54.9,106.7,54.9z"></path> <g id="inside_00000152944989308468311980000013070868100107680445_" transform="translate(7.999950, 8.000029)"> <g id="Fill-17_00000174596911650036225750000013101072899217344932_"> <path class="st2" d="M94.4,42.3C94.2,43,94,43.9,94,44.8c0,0.9,0,1.7,0.1,2.2c0.1,0.4,0.2,0.7,0.4,0.8c0.3,0.2,0.6,0.5,0.9,0.7
					c0.3,0.2,0.6,0.4,1.1,0.6c0.5,0.2,1,0.3,1.5,0.5c0.5,0.1,0.9,0.1,1.4,0c0.5-0.1,0.9-0.4,1.3-0.7c0.4-0.3,0.8-0.8,1.1-1.3
					c0.4-0.6,0.6-1.1,0.7-1.7c0.1-0.6,0.2-1.1,0.2-1.7s-0.2-1.2-0.5-1.9c-0.4-0.8-0.6-1.2-0.7-1.4c-0.2-0.2-0.4-0.5-0.7-0.8
					c-0.3-0.3-0.6-0.4-1-0.5c-0.4-0.1-0.8-0.1-1.2-0.1h-1.1c-0.4,0-0.6,0.1-0.6,0.1c-0.2,0.1-0.5,0.3-0.9,0.5
					C95.2,40.9,94.7,41.6,94.4,42.3 M104.2,51.7c-0.2,0-0.6-0.1-0.8-0.6c-0.1-0.2-0.2-0.6-0.2-2.1l-1,1.1c-0.4,0.4-0.9,0.8-1.3,1
					c-0.5,0.3-1,0.4-1.4,0.5c-0.4,0-1,0-1.6-0.1c-0.6-0.1-1.2-0.2-1.5-0.2c-0.4-0.1-0.9-0.3-1.5-0.7c-0.6-0.4-1-0.8-1.3-1.2
					l-0.7-1.1c-0.3-0.4-0.4-0.9-0.5-1.5c0-0.5,0-1.1,0-1.6s0.1-1.1,0.1-1.7c0.1-0.7,0.2-1.2,0.4-1.7c0.2-0.5,0.4-1,0.6-1.5
					c0.2-0.6,0.5-1.1,0.9-1.3c0.3-0.2,0.7-0.4,1.1-0.6c0.4-0.2,0.8-0.3,1.4-0.5c0.6-0.2,1.1-0.3,1.6-0.2c0.5,0,1.1,0.1,1.9,0.3
					c0.8,0.2,1.4,0.4,1.8,0.6c0.3,0.2,0.6,0.3,0.8,0.6c0-0.3-0.1-0.5-0.1-0.8c0-0.4,0-0.7,0.1-1c0.1-0.4,0.4-0.6,0.8-0.7
					c0.4-0.1,0.7,0.2,0.9,0.6c0.1,0.3,0.2,0.9,0.3,1.8c0.1,0.9,0.1,2.6,0.1,5c0,2.4,0.1,4.1,0.1,5c0,0.9,0,1.6-0.1,1.9
					C104.8,51.6,104.4,51.7,104.2,51.7"></path> </g> <g id="Fill-19_00000042703449645553807740000014387307068377487534_"> <path class="st2" d="M109.9,51.7c-0.1,0-0.2,0-0.3-0.1c-0.3-0.2-0.5-0.5-0.5-1.1c0-0.5-0.2-4.2-0.5-11.7v-0.2l0-0.4
					c0-0.4,0.2-0.7,0.6-0.9c0.1-0.1,0.3-0.1,0.4-0.1c0.3,0,0.6,0.1,0.7,0.4c0.2,0.4,0.2,1,0.2,1.2c0.1-0.1,0.1-0.2,0.2-0.3
					c0.4-0.4,1-0.8,1.7-0.9c0.6-0.2,1.3-0.2,1.9-0.2c0.6,0,1.2,0.1,1.7,0.2c0.5,0.1,1,0.4,1.4,0.8c0.3,0.3,0.6,0.5,0.9,0.6
					c0.3,0.2,0.5,0.5,0.6,0.8c0,0.3,0,0.6-0.2,0.8c-0.2,0.3-0.5,0.4-0.7,0.4c-0.2,0-0.5-0.1-0.8-0.3c-0.2-0.2-0.4-0.3-0.5-0.3
					c-0.2-0.1-0.4-0.3-0.8-0.6c-0.3-0.3-0.6-0.4-1-0.5c-0.4-0.1-0.9-0.1-1.5,0.1c-0.6,0.1-1,0.3-1.4,0.6c-0.4,0.3-0.7,0.7-1,1.1
					c-0.2,0.3-0.3,0.4-0.3,0.5c0,0.3,0,0.9,0,2.5c0,1.7,0,3.3,0.1,4.8c0.1,2.2-0.1,2.6-0.3,2.8C110.3,51.6,110.1,51.7,109.9,51.7"></path> </g> <g id="Fill-21_00000147938276960383075970000002145160466926209408_"> <path class="st2" d="M128.6,48.5h-1.7c-0.5,0-1-0.1-1.5-0.3c-0.5-0.2-0.9-0.5-1.4-0.8c-0.5-0.3-0.9-0.8-1.3-1.3
					c-0.4-0.6-0.6-1.2-0.6-1.9c0-0.6,0-1.3,0.1-2.1c0.1-0.8,0.2-1.5,0.4-2.2c0.2-0.7,0.7-2,1.6-3.9l0-0.1l0.1-0.1
					c0.3-0.2,0.6-0.3,0.9-0.3c0.3,0,0.6,0.2,0.7,0.4c0.1,0.2,0.2,0.5,0.1,0.8c0,0.3-0.2,0.6-0.4,0.9c-0.1,0.2-0.3,0.5-0.7,1.5
					c-0.3,0.8-0.5,1.5-0.7,2.2c-0.2,0.7-0.2,1.4-0.2,2.2c0.1,0.9,0.2,1.4,0.3,1.6c0.2,0.3,0.4,0.6,0.8,0.9c0.4,0.3,0.8,0.5,1.2,0.6
					c0.9,0.3,1.8,0.3,2.8,0c0.5-0.1,0.9-0.4,1.3-0.7c0.4-0.3,0.6-0.7,0.8-0.9c0.2-0.3,0.3-0.7,0.4-1.2c0.1-0.6,0.2-1.2,0.2-2
					c0-0.7-0.1-1.4-0.4-2c-0.3-0.6-0.6-1.2-0.8-1.7c-0.4-0.9,0.1-1.3,0.3-1.4c0.4-0.2,0.8-0.3,1.2-0.2c0.3,0.1,0.7,0.4,1.3,2.2
					c0.5,1.3,0.7,2.3,0.7,3.2c0,0.8-0.1,1.6-0.2,2.2s-0.3,1.2-0.6,1.8c-0.3,0.6-0.8,1.2-1.5,1.6c-0.7,0.4-1.2,0.7-1.6,0.8
					C129.9,48.5,129.4,48.5,128.6,48.5"></path> </g> <g id="Fill-23_00000156570196363961964640000005447674185169796758_"> <path class="st2" d="M144,39.6c-0.4,0-0.8,0-1.2,0.1c-0.4,0.1-0.7,0.2-1,0.5c-0.3,0.3-0.6,0.6-0.7,0.8c-0.1,0.2-0.3,0.5-0.7,1.4
					c-0.3,0.7-0.4,1.3-0.5,1.9c0,0.6,0,1.1,0.2,1.7s0.4,1.1,0.7,1.7s0.7,1,1.1,1.3c0.4,0.3,0.8,0.5,1.3,0.7c0.5,0.1,0.9,0.1,1.4,0
					c0.5-0.1,1-0.3,1.5-0.4c0.4-0.2,0.8-0.4,1.1-0.6c0.3-0.2,0.6-0.5,0.9-0.7c0.2-0.2,0.4-0.4,0.4-0.8c0.1-0.5,0.1-1.2,0.1-2.2
					c0-0.9-0.1-1.8-0.4-2.5c-0.2-0.7-0.8-1.4-1.6-2c-0.4-0.2-0.7-0.3-0.9-0.5c-0.1-0.1-0.3-0.1-0.6-0.1L144,39.6L144,39.6z
					 M138.5,51.6c-0.2,0-0.6-0.1-0.7-0.8c-0.1-0.3-0.1-0.9-0.1-1.9c0-0.9,0.1-2.6,0.1-5c0-2.5,0.1-4.1,0.1-5c0.1-0.8,0.1-3.2,0.1-7
					c0.1-5.9,0.2-6.1,0.4-6.2c0.2-0.2,0.5-0.3,1-0.1c0.3,0.1,0.6,0.5,0.6,1.3c-0.1,0.5-0.1,2.5-0.2,6c-0.1,3.5-0.1,5.6-0.1,6.2
					c0.3-0.3,0.6-0.6,1-0.8c0.4-0.2,1.1-0.4,1.8-0.6c0.8-0.2,1.4-0.3,1.9-0.3c0.5,0,1.1,0.1,1.6,0.2c0.5,0.2,1,0.4,1.4,0.5
					c0.4,0.2,0.8,0.4,1.1,0.6c0.3,0.3,0.6,0.7,0.9,1.3c0.2,0.6,0.4,1.1,0.6,1.5c0.2,0.5,0.3,1.1,0.4,1.7c0.1,0.6,0.1,1.2,0.1,1.7
					c0,0.5,0,1.1,0,1.6c0,0.6-0.2,1.1-0.5,1.5l-0.7,1.1c-0.3,0.4-0.7,0.8-1.3,1.2c-0.6,0.4-1.1,0.6-1.5,0.7
					c-0.4,0.1-0.9,0.1-1.5,0.2c-0.7,0.1-1.2,0.1-1.6,0.1c-0.4,0-0.9-0.2-1.4-0.5c-0.5-0.3-0.9-0.6-1.3-1l-1-1.1
					c0,1.5-0.1,1.9-0.2,2.1C139.1,51.5,138.8,51.6,138.5,51.6L138.5,51.6z"></path> </g> <g id="Fill-25_00000023242562947481902930000013282048202671959947_"> <path class="st2" d="M156.7,42.3c-0.3,0.8-0.4,1.6-0.4,2.5c0,0.9,0,1.7,0.1,2.2c0.1,0.4,0.2,0.7,0.4,0.8
					c0.3,0.2,0.6,0.5,0.9,0.7c0.3,0.2,0.6,0.4,1.1,0.6c0.5,0.2,1,0.3,1.5,0.5c0.5,0.1,0.9,0.1,1.4,0c0.5-0.1,0.9-0.4,1.3-0.7
					c0.4-0.3,0.8-0.8,1.1-1.3c0.4-0.6,0.6-1.1,0.7-1.7c0.1-0.6,0.2-1.1,0.2-1.7c0-0.6-0.2-1.2-0.5-1.9c-0.4-0.8-0.6-1.2-0.7-1.4
					c-0.2-0.2-0.4-0.5-0.7-0.8c-0.3-0.3-0.6-0.4-1-0.5c-0.4-0.1-0.8-0.1-1.2-0.1h-1.1c-0.4,0-0.6,0.1-0.6,0.1
					c-0.2,0.1-0.5,0.3-0.9,0.5C157.4,40.9,156.9,41.6,156.7,42.3L156.7,42.3z M166.4,51.7c-0.2,0-0.5-0.1-0.8-0.6
					c-0.1-0.2-0.2-0.6-0.2-2.1l-1,1.1c-0.4,0.4-0.9,0.8-1.3,1c-0.5,0.3-1,0.4-1.4,0.5c-0.4,0-1,0-1.6-0.1c-0.6-0.1-1.2-0.2-1.5-0.2
					c-0.4-0.1-0.9-0.3-1.5-0.7c-0.6-0.4-1-0.8-1.3-1.2l-0.7-1.1c-0.3-0.4-0.4-0.9-0.5-1.5c0-0.5,0-1.1,0-1.6c0-0.5,0.1-1.1,0.1-1.7
					c0.1-0.7,0.2-1.2,0.4-1.7c0.2-0.5,0.4-1,0.6-1.5c0.2-0.6,0.5-1.1,0.9-1.3c0.3-0.2,0.6-0.4,1.1-0.6c0.4-0.2,0.8-0.3,1.4-0.5
					c0.6-0.2,1.1-0.3,1.6-0.2c0.5,0,1.1,0.1,1.9,0.3c0.8,0.2,1.4,0.4,1.8,0.6c0.3,0.2,0.6,0.3,0.8,0.6c0-0.3-0.1-0.5-0.1-0.8
					c0-0.4,0-0.7,0.1-1c0.1-0.4,0.4-0.6,0.8-0.7c0.4-0.1,0.7,0.2,0.9,0.6c0.1,0.3,0.2,0.9,0.3,1.8c0.1,0.9,0.1,2.6,0.1,5
					c0,2.5,0.1,4.1,0.1,5c0,0.9,0,1.5,0,1.9C167,51.6,166.6,51.7,166.4,51.7L166.4,51.7z"></path> </g> </g> </g> <g> <path class="st0" d="M201.8,59.6h-9.1c0-27.8-22.6-50.4-50.4-50.4c-16.6,0-32.2,8.2-41.6,21.9l-2.5,3.6l-3.7-2.3
			c-4.7-2.9-10.1-4.5-15.7-4.5C62.3,27.9,49,41.3,49,57.7h-9.1c0-21.4,17.4-38.9,38.9-38.9c5.8,0,11.6,1.3,16.8,3.8
			C106.8,8.4,123.9,0,142.2,0C175,0,201.8,26.7,201.8,59.6z"></path> </g> <path class="st0" d="M177.9,74.6v25.1c0,8.6-3.5,12.3-11.7,12.3c-8.2,0-11.8-3.7-11.8-12.3V74.6h-8.6v25.1
		c0,13.2,7.4,20.8,20.3,20.8c12.9,0,20.2-7.6,20.2-20.8V74.6H177.9z"></path> <path class="st3" d="M177.7,74.6"></path> <polygon class="st0" points="62.8,83.4 62.8,74.6 54.2,74.6 54.2,120.1 88.4,120.1 88.4,111.6 62.8,111.6 	"></polygon> <path class="st0" d="M115.8,73.9c-14.2,0-24.5,9.9-24.5,23.4c0,13.6,10.3,23.4,24.5,23.4c14.2,0,24.5-9.9,24.5-23.4
		C140.3,83.8,130,73.9,115.8,73.9z M115.8,112.2c-9.4,0-16-6.1-16-14.9s6.6-14.9,16-14.9c9.4,0,16,6.1,16,14.9
		C131.8,106.1,125.2,112.2,115.8,112.2z"></path> <g> <path class="st0" d="M212.8,74.6h-19.9v45.5h19.9c14.9,0,24.9-9.1,24.9-22.8C237.7,83.7,227.7,74.6,212.8,74.6z M212.8,111.5
			h-11.3V83.2l11.3,0c10.2,0,16.3,5.3,16.3,14.2C229.1,106.2,223,111.5,212.8,111.5z"></path> </g> </g> </svg>